<svg xmlns="http://www.w3.org/2000/svg" width="24" height="24" viewBox="0 0 35 32"><path d="M27.464 2.314a.501.501 0 00-.698-.257L14.86 8.339a.499.499 0 00-.233.621l.245.641-6.873 3.769a.5.5 0 00-.222.63l.228.549-7.299 3.488a.5.5 0 00-.246.643l1.498 3.61a.5.5 0 00.629.28l7.625-2.701.228.549a.5.5 0 00.601.289l7.276-2.097.218.569a.497.497 0 00.612.299l13-4a.498.498 0 00.317-.663l-5-12.501zM2.7 21.469l-1.134-2.734 6.823-3.261 1.439 3.47L2.7 21.469zm8.491-1.846l-.238-.574-1.843-4.445-.238-.573 6.336-3.475 2.374 6.134.375.981-6.766 1.952zm8.109-1.238l-.203-.531c-.003-.011-.001-.024-.006-.035l-.618-1.597-2.754-7.206 11.023-5.815 4.592 11.48L19.3 18.385zM28.964.314a.5.5 0 00-.929.371l6 15a.502.502 0 00.651.279.501.501 0 00.279-.65l-6.001-15zM18 21h-3c-1.14 0-2 .86-2 2v1.315l-5.879 6.859a.5.5 0 10.758.651L13.73 25H16v6.5a.5.5 0 001 0V25h2.27l5.85 6.825a.497.497 0 00.705.054.5.5 0 00.054-.705L20 24.315v-1.24C20 21.912 19.122 21 18 21zm1 3h-5v-1c0-.589.411-1 1-1h3c.57 0 1 .462 1 1.075V24z"/></svg>